<svg id="图层_1" data-name="图层 1" xmlns="http://www.w3.org/2000/svg" viewBox="0 0 38 35.19"><defs><style>.cls-1{fill:none;stroke:#f7ff13;}.cls-1,.cls-2{stroke-miterlimit:10;}.cls-2{fill:#fff;}.cls-2,.cls-3{stroke:#000;}.cls-3{fill:#13acff;stroke-linejoin:round;}</style></defs><g id="图层_2" data-name="图层 2"><path class="cls-1" d="M37,13.43A9.29,9.29,0,1,1,26.56,1a9.29,9.29,0,0,0,5.33,12,9.07,9.07,0,0,0,3.34.61A9.31,9.31,0,0,0,37,13.43Z" transform="translate(0 -0.33)"/></g><g id="图层_1-2" data-name="图层 1"><path class="cls-2" d="M34.71,10.72a9.45,9.45,0,0,0-9.63-2.29A8,8,0,0,0,9.5,10.93h-1a8,8,0,0,0,0,16H28a9.49,9.49,0,0,0,6.71-16.21Z" transform="translate(0 -0.33)"/></g><path class="cls-3" d="M18.59,25S16,31.16,16,32.72c0,3.12,6,3,6,0C22,31.19,18.59,25,18.59,25Z" transform="translate(0 -0.33)"/></svg>