<svg id="图层_1" data-name="图层 1" xmlns="http://www.w3.org/2000/svg" viewBox="0 0 24.76 42.4"><defs><style>.cls-1{fill:#59c5ff;}.cls-1,.cls-2,.cls-3{stroke:#000;stroke-miterlimit:10;stroke-width:2px;}.cls-2{fill:#a8fffd;}.cls-3{fill:#fff;}</style></defs><path class="cls-1" d="M36.47,29.61a27.54,27.54,0,0,0-.78-3.84,10.57,10.57,0,0,0-3,.21,17.65,17.65,0,0,0-8,4.25C28,32.26,32.88,31.35,36.47,29.61Z" transform="translate(-12.85 -3.6)"/><path class="cls-2" d="M25.46,45c3.63,0,10.67-2.81,11.14-12.31a18,18,0,0,0-.14-3.08c-4.12,2-10,2.92-13-.47-2.16-2.44-5.42-3.29-8.4-3.46a24.68,24.68,0,0,0-1.2,7A12,12,0,0,0,25.46,45Z" transform="translate(-12.85 -3.6)"/><path class="cls-3" d="M23.45,29.1a6.38,6.38,0,0,0,1.29,1.1,17.65,17.65,0,0,1,8-4.26,10.61,10.61,0,0,1,3-.21C33,15.9,25.46,5.33,25.46,5.33S18,15.83,15.05,25.63C18,25.81,21.29,26.65,23.45,29.1Z" transform="translate(-12.85 -3.6)"/></svg>